<svg version="1.1" id="Layer_1" xmlns="http://www.w3.org/2000/svg" xmlns:xlink="http://www.w3.org/1999/xlink" x="0px" y="0px"
	 width="100%" viewBox="0 0 200 200" enable-background="new 0 0 200 200" xml:space="preserve">
<path fill="#010101" opacity="1.000000" stroke="none" 
	d="
M104.000000,201.000000 
	C69.354691,201.000000 35.209385,201.000000 1.032038,201.000000 
	C1.032038,134.396378 1.032038,67.792740 1.032038,1.094551 
	C67.561836,1.094551 134.123856,1.094551 200.842926,1.094551 
	C200.842926,67.666374 200.842926,134.333145 200.842926,201.000000 
	C168.792984,201.000000 136.646484,201.000000 104.000000,201.000000 
M162.685791,87.908554 
	C158.096298,86.354454 154.748306,86.635376 154.983841,92.811081 
	C155.012039,93.549995 153.949280,94.330528 152.941544,95.693268 
	C151.283081,100.825089 149.624634,105.956917 147.637177,112.106773 
	C145.419952,105.356583 143.287598,99.790459 141.803223,94.056580 
	C140.587021,89.358627 138.225204,87.767014 133.447250,89.508087 
	C136.643585,98.501862 139.886078,107.479561 143.022568,116.494148 
	C145.854523,124.633438 143.761734,128.181503 135.217300,130.009216 
	C134.994141,134.688461 136.276352,136.155273 140.285110,134.540741 
	C142.941315,133.470932 146.095749,131.281296 147.075928,128.816910 
	C151.215759,118.408272 154.623749,107.708565 158.800308,96.717751 
	C160.159607,93.441498 161.518906,90.165245 163.688965,86.998749 
	C164.111206,88.566895 164.412140,90.182678 165.002136,91.684944 
	C165.344299,92.556160 166.151276,93.244835 166.749054,94.015648 
	C167.357361,93.186615 168.414108,92.400780 168.498810,91.521317 
	C168.939545,86.946220 167.179794,83.366669 162.841248,81.533882 
	C161.690506,81.047752 160.147415,81.490349 158.784470,81.506516 
	C159.494034,82.580223 160.154800,83.690742 160.928543,84.715996 
	C161.550018,85.539474 162.308411,86.259613 162.685791,87.908554 
M43.889107,119.758286 
	C46.245049,120.490349 48.600990,121.222404 50.956932,121.954468 
	C51.119251,121.512459 51.281570,121.070442 51.443886,120.628433 
	C48.209496,114.743660 44.975105,108.858894 41.665607,102.837471 
	C42.493839,102.338142 43.056065,102.046585 43.567551,101.683556 
	C49.196556,97.688309 50.722286,93.466896 49.054363,86.539314 
	C47.687283,80.861244 43.537327,78.319191 38.236137,77.960358 
	C32.175865,77.550133 26.066488,77.865349 19.755913,77.865349 
	C19.755913,92.371391 19.755913,106.743477 19.755913,121.170456 
	C21.770790,121.170456 23.492655,121.170456 25.505795,121.170456 
	C25.505795,115.375809 25.505795,109.933144 25.505795,104.539734 
	C35.163517,103.063171 35.144543,103.072823 39.294514,111.229614 
	C40.645103,113.884201 42.123184,116.473907 43.889107,119.758286 
M103.142563,110.062767 
	C102.168396,114.656952 103.679947,118.507133 107.630981,120.713768 
	C112.765259,123.581223 118.026863,122.988472 121.499924,120.237801 
	C125.004631,120.892883 127.318535,121.325386 129.017303,121.642914 
	C129.017303,113.444145 129.080917,105.864479 128.997421,98.286438 
	C128.929169,92.091866 124.016556,88.006729 116.830170,87.986626 
	C109.514923,87.966164 104.530960,91.885620 104.080299,98.217560 
	C105.880707,98.217560 107.668488,98.217560 109.533546,98.217560 
	C110.913925,94.006172 113.898582,92.527733 118.232910,93.441833 
	C122.636681,94.370583 123.512070,97.214447 122.671974,101.242188 
	C115.337845,101.990997 107.074699,100.260658 103.142563,110.062767 
M71.195473,122.496895 
	C73.834961,121.605453 76.694740,121.098213 79.065849,119.738708 
	C83.358162,117.277672 83.126106,115.639839 78.390953,113.133049 
	C75.571068,117.181801 71.442490,118.283340 67.037529,116.641907 
	C62.981583,115.130531 61.448776,111.457855 61.145359,106.873466 
	C68.532661,106.873466 75.643929,106.873466 83.015106,106.873466 
	C83.015106,104.908348 83.112007,103.266701 82.998245,101.639778 
	C82.517075,94.758461 79.078163,90.108360 73.422562,88.576103 
	C67.426666,86.951653 61.442047,89.304298 57.851772,94.697189 
	C49.966713,106.541206 56.330685,120.649872 71.195473,122.496895 
M95.643570,104.497955 
	C95.643570,94.738068 95.643570,84.978188 95.643570,75.133255 
	C93.345772,75.133255 91.569214,75.133255 89.733170,75.133255 
	C89.733170,90.673019 89.733170,106.004555 89.733170,121.680092 
	C91.875420,121.567680 93.602928,121.477036 95.643005,121.369980 
	C95.643005,115.746307 95.643005,110.621437 95.643570,104.497955 
M181.599319,92.827621 
	C182.453201,81.212601 176.330246,71.854088 165.571762,68.600311 
	C164.411850,68.249512 162.976730,68.808685 161.669281,68.945755 
	C162.564133,69.985382 163.255325,71.527145 164.385864,71.985710 
	C174.010345,75.889580 178.287521,82.478798 177.991180,93.145454 
	C177.961731,94.205833 178.636047,95.285767 178.983719,96.356628 
	C179.852753,95.446495 180.721786,94.536354 181.599319,92.827621 
M174.811813,86.229553 
	C172.965454,80.488884 169.382614,76.366608 163.497665,74.666161 
	C162.513474,74.381775 161.196198,75.250130 160.032822,75.585823 
	C160.777863,76.460106 161.356613,77.784462 162.296402,78.131683 
	C166.644058,79.737968 169.632660,82.587410 170.890472,87.018471 
	C171.378021,88.735977 171.051514,90.678970 171.498138,92.415794 
	C171.767532,93.463409 172.810669,94.312050 173.506119,95.250099 
	C174.018692,94.351425 174.857773,93.492737 174.973785,92.545494 
	C175.194244,90.745377 175.001022,88.894600 174.811813,86.229553 
z"/>
<path fill="#F5F5F5" opacity="1.000000" stroke="none" 
	d="
M43.716026,119.425789 
	C42.123184,116.473907 40.645103,113.884201 39.294514,111.229614 
	C35.144543,103.072823 35.163517,103.063171 25.505795,104.539734 
	C25.505795,109.933144 25.505795,115.375809 25.505795,121.170456 
	C23.492655,121.170456 21.770790,121.170456 19.755913,121.170456 
	C19.755913,106.743477 19.755913,92.371391 19.755913,77.865349 
	C26.066488,77.865349 32.175865,77.550133 38.236137,77.960358 
	C43.537327,78.319191 47.687283,80.861244 49.054363,86.539314 
	C50.722286,93.466896 49.196556,97.688309 43.567551,101.683556 
	C43.056065,102.046585 42.493839,102.338142 41.665607,102.837471 
	C44.975105,108.858894 48.209496,114.743660 51.443886,120.628433 
	C51.281570,121.070442 51.119251,121.512459 50.956932,121.954468 
	C48.600990,121.222404 46.245049,120.490349 43.716026,119.425789 
M43.469372,91.268402 
	C42.309700,83.226685 38.585175,81.575630 25.734531,83.495285 
	C25.734531,88.554245 25.734531,93.634010 25.734531,98.995201 
	C28.954790,98.995201 31.948727,99.224228 34.893295,98.940651 
	C39.140511,98.531639 42.569752,96.811722 43.469372,91.268402 
z"/>
<path fill="#F5F5F5" opacity="1.000000" stroke="none" 
	d="
M103.322296,109.707863 
	C107.074699,100.260658 115.337845,101.990997 122.671974,101.242188 
	C123.512070,97.214447 122.636681,94.370583 118.232910,93.441833 
	C113.898582,92.527733 110.913925,94.006172 109.533546,98.217560 
	C107.668488,98.217560 105.880707,98.217560 104.080299,98.217560 
	C104.530960,91.885620 109.514923,87.966164 116.830170,87.986626 
	C124.016556,88.006729 128.929169,92.091866 128.997421,98.286438 
	C129.080917,105.864479 129.017303,113.444145 129.017303,121.642914 
	C127.318535,121.325386 125.004631,120.892883 121.499924,120.237801 
	C118.026863,122.988472 112.765259,123.581223 107.630981,120.713768 
	C103.679947,118.507133 102.168396,114.656952 103.322296,109.707863 
M119.246590,115.997093 
	C123.502625,113.902359 123.415085,110.274788 122.599968,105.672195 
	C119.218872,106.122940 115.694664,106.062576 112.628876,107.218307 
	C111.022346,107.823929 108.985657,110.897369 109.354233,112.256935 
	C109.861176,114.126892 112.279572,115.766273 114.243690,116.832993 
	C115.235397,117.371597 117.029503,116.432747 119.246590,115.997093 
z"/>
<path fill="#F5F5F5" opacity="1.000000" stroke="none" 
	d="
M70.800247,122.512070 
	C56.330685,120.649872 49.966713,106.541206 57.851772,94.697189 
	C61.442047,89.304298 67.426666,86.951653 73.422562,88.576103 
	C79.078163,90.108360 82.517075,94.758461 82.998245,101.639778 
	C83.112007,103.266701 83.015106,104.908348 83.015106,106.873466 
	C75.643929,106.873466 68.532661,106.873466 61.145359,106.873466 
	C61.448776,111.457855 62.981583,115.130531 67.037529,116.641907 
	C71.442490,118.283340 75.571068,117.181801 78.390953,113.133049 
	C83.126106,115.639839 83.358162,117.277672 79.065849,119.738708 
	C76.694740,121.098213 73.834961,121.605453 70.800247,122.512070 
M67.705505,102.001213 
	C70.767128,102.001213 73.828751,102.001213 76.987495,102.001213 
	C75.638824,95.223190 73.525009,92.812195 69.549965,93.019943 
	C65.397476,93.236969 62.695885,96.292351 61.832825,102.001213 
	C63.520058,102.001213 65.163116,102.001213 67.705505,102.001213 
z"/>
<path fill="#F5F5F5" opacity="1.000000" stroke="none" 
	d="
M158.299362,97.115303 
	C154.623749,107.708565 151.215759,118.408272 147.075928,128.816910 
	C146.095749,131.281296 142.941315,133.470932 140.285110,134.540741 
	C136.276352,136.155273 134.994141,134.688461 135.217300,130.009216 
	C143.761734,128.181503 145.854523,124.633438 143.022568,116.494148 
	C139.886078,107.479561 136.643585,98.501862 133.447250,89.508087 
	C138.225204,87.767014 140.587021,89.358627 141.803223,94.056580 
	C143.287598,99.790459 145.419952,105.356583 147.637177,112.106773 
	C149.624634,105.956917 151.283081,100.825089 153.446777,95.567513 
	C155.401123,95.999603 156.850250,96.557457 158.299362,97.115303 
z"/>
<path fill="#D9D9D9" opacity="1.000000" stroke="none" 
	d="
M95.643288,104.997261 
	C95.643005,110.621437 95.643005,115.746307 95.643005,121.369980 
	C93.602928,121.477036 91.875420,121.567680 89.733170,121.680092 
	C89.733170,106.004555 89.733170,90.673019 89.733170,75.133255 
	C91.569214,75.133255 93.345772,75.133255 95.643570,75.133255 
	C95.643570,84.978188 95.643570,94.738068 95.643288,104.997261 
z"/>
<path fill="#E6E6E6" opacity="1.000000" stroke="none" 
	d="
M181.595062,93.226921 
	C180.721786,94.536354 179.852753,95.446495 178.983719,96.356628 
	C178.636047,95.285767 177.961731,94.205833 177.991180,93.145454 
	C178.287521,82.478798 174.010345,75.889580 164.385864,71.985710 
	C163.255325,71.527145 162.564133,69.985382 161.669281,68.945755 
	C162.976730,68.808685 164.411850,68.249512 165.571762,68.600311 
	C176.330246,71.854088 182.453201,81.212601 181.595062,93.226921 
z"/>
<path fill="#E6E6E6" opacity="1.000000" stroke="none" 
	d="
M174.895706,86.647202 
	C175.001022,88.894600 175.194244,90.745377 174.973785,92.545494 
	C174.857773,93.492737 174.018692,94.351425 173.506119,95.250099 
	C172.810669,94.312050 171.767532,93.463409 171.498138,92.415794 
	C171.051514,90.678970 171.378021,88.735977 170.890472,87.018471 
	C169.632660,82.587410 166.644058,79.737968 162.296402,78.131683 
	C161.356613,77.784462 160.777863,76.460106 160.032822,75.585831 
	C161.196198,75.250130 162.513474,74.381775 163.497665,74.666161 
	C169.382614,76.366608 172.965454,80.488884 174.895706,86.647202 
z"/>
<path fill="#E6E6E6" opacity="1.000000" stroke="none" 
	d="
M158.549835,96.916527 
	C156.850250,96.557457 155.401123,95.999603 153.672104,95.266762 
	C153.949280,94.330528 155.012039,93.549995 154.983841,92.811081 
	C154.748306,86.635376 158.096298,86.354454 162.816040,87.430969 
	C162.946289,86.953392 162.878204,86.888992 162.878204,86.888992 
	C161.518906,90.165245 160.159607,93.441498 158.549835,96.916527 
z"/>
<path fill="#E6E6E6" opacity="1.000000" stroke="none" 
	d="
M162.976166,86.989494 
	C162.308411,86.259613 161.550018,85.539474 160.928543,84.715996 
	C160.154800,83.690742 159.494034,82.580223 158.784470,81.506516 
	C160.147415,81.490349 161.690506,81.047752 162.841248,81.533882 
	C167.179794,83.366669 168.939545,86.946220 168.498810,91.521317 
	C168.414108,92.400780 167.357361,93.186615 166.749054,94.015656 
	C166.151276,93.244835 165.344299,92.556160 165.002136,91.684944 
	C164.412140,90.182678 164.111206,88.566895 163.283585,86.943871 
	C162.878204,86.888992 162.946289,86.953392 162.976166,86.989494 
z"/>
<path fill="#0A0A0A" opacity="1.000000" stroke="none" 
	d="
M43.385399,91.631409 
	C42.569752,96.811722 39.140511,98.531639 34.893295,98.940651 
	C31.948727,99.224228 28.954790,98.995201 25.734531,98.995201 
	C25.734531,93.634010 25.734531,88.554245 25.734531,83.495285 
	C38.585175,81.575630 42.309700,83.226685 43.385399,91.631409 
z"/>
<path fill="#010101" opacity="1.000000" stroke="none" 
	d="
M118.853699,116.079514 
	C117.029503,116.432747 115.235397,117.371597 114.243690,116.832993 
	C112.279572,115.766273 109.861176,114.126892 109.354233,112.256935 
	C108.985657,110.897369 111.022346,107.823929 112.628876,107.218307 
	C115.694664,106.062576 119.218872,106.122940 122.599968,105.672195 
	C123.415085,110.274788 123.502625,113.902359 118.853699,116.079514 
z"/>
<path fill="#0A0A0A" opacity="1.000000" stroke="none" 
	d="
M67.255844,102.001213 
	C65.163116,102.001213 63.520058,102.001213 61.832825,102.001213 
	C62.695885,96.292351 65.397476,93.236969 69.549965,93.019943 
	C73.525009,92.812195 75.638824,95.223190 76.987495,102.001213 
	C73.828751,102.001213 70.767128,102.001213 67.255844,102.001213 
z"/>
</svg>